<svg xmlns="http://www.w3.org/2000/svg" xmlns:xlink="http://www.w3.org/1999/xlink" width="250" zoomAndPan="magnify" viewBox="0 0 187.5 74.999997" height="100" preserveAspectRatio="xMidYMid meet" version="1.0"><defs><g/><clipPath id="ec00675064"><path d="M 31 12.046875 L 71.472656 12.046875 L 71.472656 56.929688 L 31 56.929688 Z M 31 12.046875 " clip-rule="nonzero"/></clipPath><clipPath id="b77b67457e"><path d="M 3.40625 12.046875 L 43 12.046875 L 43 56.929688 L 3.40625 56.929688 Z M 3.40625 12.046875 " clip-rule="nonzero"/></clipPath></defs><g clip-path="url(#ec00675064)"><path fill="#000000" d="M 60.445312 12.046875 L 60.445312 37.265625 L 42.949219 13.359375 L 41.984375 12.046875 L 31.941406 12.046875 L 31.941406 30.238281 L 42.949219 45.261719 L 42.949219 31.628906 L 61.398438 56.929688 L 71.453125 56.929688 L 71.453125 12.046875 Z M 60.445312 12.046875 " fill-opacity="1" fill-rule="nonzero"/></g><g clip-path="url(#b77b67457e)"><path fill="#000000" d="M 31.941406 37.265625 L 13.46875 12.046875 L 3.425781 12.046875 L 3.425781 56.929688 L 14.433594 56.929688 L 14.433594 31.628906 L 31.941406 55.617188 L 32.894531 56.929688 L 42.949219 56.929688 L 42.949219 52.371094 L 31.941406 37.332031 Z M 31.941406 37.265625 " fill-opacity="1" fill-rule="nonzero"/></g><g fill="#ffffff" fill-opacity="1"><g transform="translate(73.998085, 56.508403)"><g><path d="M 19.46875 0 L 14.546875 0 L 6.875 -13.890625 L 6.875 0 L 1.96875 0 L 1.96875 -22.28125 L 6.875 -22.28125 L 14.546875 -8.390625 L 14.546875 -22.28125 L 19.46875 -22.28125 Z M 19.46875 0 "/></g></g></g><g fill="#ffffff" fill-opacity="1"><g transform="translate(95.420354, 56.508403)"><g><path d="M 6.421875 -8.9375 L 12.875 -8.9375 C 12.875 -8.9375 12.847656 -9.070312 12.796875 -9.34375 C 12.742188 -9.625 12.613281 -9.9375 12.40625 -10.28125 C 12.195312 -10.632812 11.875 -10.945312 11.4375 -11.21875 C 11 -11.488281 10.410156 -11.625 9.671875 -11.625 C 8.898438 -11.625 8.296875 -11.488281 7.859375 -11.21875 C 7.421875 -10.945312 7.097656 -10.632812 6.890625 -10.28125 C 6.679688 -9.9375 6.550781 -9.625 6.5 -9.34375 C 6.445312 -9.070312 6.421875 -8.9375 6.421875 -8.9375 Z M 17.59375 -7.53125 C 17.59375 -7.382812 17.585938 -7.234375 17.578125 -7.078125 C 17.566406 -6.921875 17.5625 -6.769531 17.5625 -6.625 L 6.359375 -6.625 C 6.359375 -6.070312 6.484375 -5.523438 6.734375 -4.984375 C 6.984375 -4.453125 7.34375 -4.015625 7.8125 -3.671875 C 8.28125 -3.335938 8.832031 -3.171875 9.46875 -3.171875 C 10.34375 -3.171875 11.03125 -3.40625 11.53125 -3.875 C 12.03125 -4.351562 12.289062 -4.851562 12.3125 -5.375 L 17.328125 -5.375 C 16.910156 -3.46875 15.992188 -2.039062 14.578125 -1.09375 C 13.160156 -0.144531 11.488281 0.328125 9.5625 0.328125 C 7.90625 0.328125 6.441406 0.015625 5.171875 -0.609375 C 3.910156 -1.234375 2.921875 -2.109375 2.203125 -3.234375 C 1.492188 -4.359375 1.140625 -5.679688 1.140625 -7.203125 C 1.140625 -8.710938 1.503906 -10.035156 2.234375 -11.171875 C 2.972656 -12.304688 3.972656 -13.191406 5.234375 -13.828125 C 6.503906 -14.460938 7.945312 -14.78125 9.5625 -14.78125 C 11.03125 -14.78125 12.367188 -14.492188 13.578125 -13.921875 C 14.796875 -13.359375 15.769531 -12.539062 16.5 -11.46875 C 17.226562 -10.394531 17.59375 -9.082031 17.59375 -7.53125 Z M 17.59375 -7.53125 "/></g></g></g><g fill="#ffffff" fill-opacity="1"><g transform="translate(114.156656, 56.508403)"><g><path d="M -0.203125 -14.421875 L 5.5 -14.421875 L 8.359375 -10 L 11.203125 -14.421875 L 16.90625 -14.421875 L 11.5 -7.28125 L 17.359375 0 L 11.375 0 L 8.359375 -4.453125 L 5.34375 0 L -0.65625 0 L 5.203125 -7.28125 Z M -0.203125 -14.421875 "/></g></g></g><g fill="#ffffff" fill-opacity="1"><g transform="translate(130.862096, 56.508403)"><g><path d="M 9.40625 -3.40625 C 10.28125 -3.40625 10.957031 -3.585938 11.4375 -3.953125 C 11.914062 -4.328125 12.253906 -4.804688 12.453125 -5.390625 C 12.648438 -5.972656 12.75 -6.566406 12.75 -7.171875 C 12.75 -7.785156 12.644531 -8.375 12.4375 -8.9375 C 12.226562 -9.507812 11.882812 -9.976562 11.40625 -10.34375 C 10.925781 -10.71875 10.257812 -10.90625 9.40625 -10.90625 C 8.550781 -10.90625 7.878906 -10.71875 7.390625 -10.34375 C 6.898438 -9.976562 6.550781 -9.507812 6.34375 -8.9375 C 6.132812 -8.375 6.03125 -7.785156 6.03125 -7.171875 C 6.03125 -6.566406 6.128906 -5.972656 6.328125 -5.390625 C 6.523438 -4.804688 6.867188 -4.328125 7.359375 -3.953125 C 7.847656 -3.585938 8.53125 -3.40625 9.40625 -3.40625 Z M 9.40625 -14.75 C 10.914062 -14.75 12.289062 -14.429688 13.53125 -13.796875 C 14.78125 -13.160156 15.773438 -12.28125 16.515625 -11.15625 C 17.253906 -10.03125 17.625 -8.710938 17.625 -7.203125 C 17.625 -5.679688 17.257812 -4.359375 16.53125 -3.234375 C 15.800781 -2.109375 14.8125 -1.238281 13.5625 -0.625 C 12.320312 -0.0078125 10.9375 0.296875 9.40625 0.296875 C 7.875 0.296875 6.476562 -0.0078125 5.21875 -0.625 C 3.96875 -1.238281 2.972656 -2.109375 2.234375 -3.234375 C 1.503906 -4.359375 1.140625 -5.679688 1.140625 -7.203125 C 1.140625 -8.710938 1.507812 -10.03125 2.25 -11.15625 C 3 -12.28125 4 -13.160156 5.25 -13.796875 C 6.507812 -14.429688 7.894531 -14.75 9.40625 -14.75 Z M 9.40625 -14.75 "/></g></g></g><g fill="#ffffff" fill-opacity="1"><g transform="translate(149.631151, 56.508403)"><g><path d="M 6.875 0 L 1.96875 0 L 1.96875 -24.578125 L 6.875 -24.578125 Z M 6.875 0 "/></g></g></g><g fill="#ffffff" fill-opacity="1"><g transform="translate(158.475209, 56.508403)"><g><path d="M 1.703125 -19.390625 C 1.703125 -20.203125 1.976562 -20.882812 2.53125 -21.4375 C 3.09375 -22 3.78125 -22.28125 4.59375 -22.28125 C 5.375 -22.28125 6.046875 -22 6.609375 -21.4375 C 7.179688 -20.882812 7.46875 -20.203125 7.46875 -19.390625 C 7.46875 -18.609375 7.179688 -17.929688 6.609375 -17.359375 C 6.046875 -16.796875 5.375 -16.515625 4.59375 -16.515625 C 3.78125 -16.515625 3.09375 -16.796875 2.53125 -17.359375 C 1.976562 -17.929688 1.703125 -18.609375 1.703125 -19.390625 Z M 7.046875 0 L 2.125 0 L 2.125 -14.453125 L 7.046875 -14.453125 Z M 7.046875 0 "/></g></g></g><g fill="#ffffff" fill-opacity="1"><g transform="translate(167.646822, 56.508403)"><g><path d="M 9.40625 -3.40625 C 10.28125 -3.40625 10.957031 -3.585938 11.4375 -3.953125 C 11.914062 -4.328125 12.253906 -4.804688 12.453125 -5.390625 C 12.648438 -5.972656 12.75 -6.566406 12.75 -7.171875 C 12.75 -7.785156 12.644531 -8.375 12.4375 -8.9375 C 12.226562 -9.507812 11.882812 -9.976562 11.40625 -10.34375 C 10.925781 -10.71875 10.257812 -10.90625 9.40625 -10.90625 C 8.550781 -10.90625 7.878906 -10.71875 7.390625 -10.34375 C 6.898438 -9.976562 6.550781 -9.507812 6.34375 -8.9375 C 6.132812 -8.375 6.03125 -7.785156 6.03125 -7.171875 C 6.03125 -6.566406 6.128906 -5.972656 6.328125 -5.390625 C 6.523438 -4.804688 6.867188 -4.328125 7.359375 -3.953125 C 7.847656 -3.585938 8.53125 -3.40625 9.40625 -3.40625 Z M 9.40625 -14.75 C 10.914062 -14.75 12.289062 -14.429688 13.53125 -13.796875 C 14.78125 -13.160156 15.773438 -12.28125 16.515625 -11.15625 C 17.253906 -10.03125 17.625 -8.710938 17.625 -7.203125 C 17.625 -5.679688 17.257812 -4.359375 16.53125 -3.234375 C 15.800781 -2.109375 14.8125 -1.238281 13.5625 -0.625 C 12.320312 -0.0078125 10.9375 0.296875 9.40625 0.296875 C 7.875 0.296875 6.476562 -0.0078125 5.21875 -0.625 C 3.96875 -1.238281 2.972656 -2.109375 2.234375 -3.234375 C 1.503906 -4.359375 1.140625 -5.679688 1.140625 -7.203125 C 1.140625 -8.710938 1.507812 -10.03125 2.25 -11.15625 C 3 -12.28125 4 -13.160156 5.25 -13.796875 C 6.507812 -14.429688 7.894531 -14.75 9.40625 -14.75 Z M 9.40625 -14.75 "/></g></g></g></svg>